<?xml version="1.0" encoding="utf-8"?>
<!-- Generator: Adobe Illustrator 18.0.0, SVG Export Plug-In . SVG Version: 6.00 Build 0)  -->
<!DOCTYPE svg PUBLIC "-//W3C//DTD SVG 1.1//EN" "http://www.w3.org/Graphics/SVG/1.1/DTD/svg11.dtd">
<svg version="1.1" id="Layer_1" xmlns="http://www.w3.org/2000/svg" xmlns:xlink="http://www.w3.org/1999/xlink" x="0px" y="0px"
	 viewBox="0 0 100 100" enable-background="new 0 0 100 100" xml:space="preserve">
<g>
	<path d="M44.8,41.2H21.1c-0.2,0-0.3-0.1-0.3-0.3V28.1c0-0.8,0.7-1.5,1.5-1.5h37.2l13.1-13.1c-3-1-6.1-1.5-9.4-1.5H20.8
		c-8.1,0-14.6,6.5-14.6,14.6v43.8c0,8.1,6.5,14.6,14.6,14.6h0V56.1c0-0.2,0.1-0.3,0.3-0.3h9.1L44.8,41.2z"/>
	<path d="M79.6,16.8L69.1,27.3c5.9,1.9,10.1,7.4,10.1,13.9v14.6c0,8.1-6.5,14.6-14.6,14.6H50.3c-0.2,0-0.3-0.1-0.3-0.3V46.4L35.4,61
		v24h27.7c16.9,0,30.7-13.7,30.7-30.7V42.7C93.8,31.8,88.1,22.2,79.6,16.8z"/>
</g>
</svg>
